<svg xmlns="http://www.w3.org/2000/svg" width="100%" viewBox="0 0 823 823" height="150" xmlns:v="https://vecta.io/nano"><path fill="#fefefe" d="M444 824c-146.5 0-292.5-.017-438.5.094-3.749.003-4.595-.844-4.593-4.594V5.5C.905 1.752 1.75.905 5.5.907h814c3.748-.001 4.596.842 4.594 4.593v814c.001 3.747-.841 4.599-4.592 4.595L444 824z"/><path fill="#1e5d4d" d="M313.505 118.555c155.477-21.277 297.878 55.58 369.523 179.412l-19.747 6.897c-2.882 1.033-3.37-1.325-4.359-2.904-11.524-18.385-24.414-35.733-39.133-51.698-41.623-45.148-91.469-77.55-150.001-96.299-48.798-15.631-98.666-19.914-149.499-13.412-53.099 6.792-102.081 24.83-146.516 54.566-59.479 39.803-103.045 92.838-129.909 159.339-3.114 7.709-5.906 15.557-8.552 23.44-.736 2.192-1.696 2.878-3.841 2.846-5.497-.082-11.005-.185-16.492.071-3.677.171-4.061-.933-3.025-4.26 11.165-35.853 27.115-69.38 48.389-100.346 37.404-54.447 85.849-96.136 145.235-124.972 34.064-16.54 69.919-27.481 107.927-32.679z"/><path fill="#b37f61" d="M364.653 239.641c3.316-3.541 6.564-6.684 9.401-10.162 2.372-2.907 3.799-2.314 6.137.174l74.067 78.519c2.684 2.863 4.029 3.555 7.183.414l38.392-37.218c2.268-2.219 3.488-2.415 5.911-.051l105.802 102.668c2.815 2.718 3.106 4.487.085 7.052-2.53 2.148-4.962 4.515-6.977 7.139-3 3.907-5.098 3.996-8.836.326l-89.862-87.53c-2.767-2.707-4.081-2.4-6.621.087l-90.165 87.943c-2.564 2.507-5.106 3.735-8.765 3.692l-46.496-.027c-3.386.028-5.883-.87-8.386-3.314l-90.625-88.179c-2.826-2.765-4.165-2.684-6.923.011l-90.614 88.168c-2.621 2.559-4.181 3.036-6.664.004-2.627-3.208-5.579-6.213-8.722-8.919-3.02-2.599-1.699-4.164.489-6.278l46.962-45.621 58.443-56.743c2.76-2.709 4.221-2.91 7.057-.087l37.551 36.658c3.018 3.008 4.546 2.775 7.368-.236l64.806-68.492z"/><path fill="#1d5d4d" d="M87.761 398.591c.906-7.412.906-7.416 8.044-7.423l26.988-.068c2.933-.047 3.808.545 2.861 3.65L90.091 512.225c-.87 2.896-2.171 3.832-5.191 3.792-12.992-.171-25.989-.167-38.981.01-2.907.04-4.048-.975-4.773-3.644L9.172 395.433c-.806-2.931-.985-4.475 3.009-4.374 10.489.265 20.99.179 31.484.026 2.712-.039 3.847.821 4.26 3.492 4.274 27.64 11.068 54.785 16.27 82.244.287 1.516-.107 3.973 1.808 4.222 2.667.347 2.235-2.535 2.595-4.025 6.289-26.017 14.992-51.446 19.164-78.426z"/><path fill="#1d5c4d" d="M482.474 484.528l-6.072-10.744c-.682-1.163-.877-3.325-2.847-2.739-1.561.464-.973 2.319-.945 3.532l.97 33.445c.315 7.935.435 7.927-7.581 7.921-6.828-.005-13.659-.122-20.482.06-2.907.078-4.119-.386-3.821-3.779 2.663-30.281.131-60.572-.152-90.859-.034-3.62.896-4.475 4.355-4.397 9.821.22 19.654.253 29.473-.011 3.611-.097 5.623.921 7.389 4.193 6.873 12.733 14.068 25.291 21.215 37.874.671 1.181.901 3.381 2.832 2.949 2.112-.473.993-2.529.969-3.812l-.921-35.456c-.13-3.3.56-4.664 4.224-4.727 7.985-.138 15.973-.658 23.932-1.347 3.4-.294 4.549.27 4.454 4.085-.756 30.447-3.08 60.893-.595 91.356.258 3.158-.733 3.983-3.813 3.933-10.655-.176-21.316-.131-31.973-.028-2.3.022-3.519-.74-4.631-2.796l-15.979-28.656z"/><path fill="#1c5c4c" d="M726.943 529.154l-14.546-70.817c-.301-1.445.26-3.969-1.945-4.043-2.151-.072-1.916 2.438-2.262 3.882-6.01 25.06-14.308 49.553-18.614 75.036-1.842 10.898-1.896 10.889-13.124 10.888-8.481 0-16.963 0-26.175 0l6.047-20.63 30.207-99.786c.959-3.2 2.457-4.004 5.602-3.961l38.481-.002c3.128-.049 4.264 1.007 5.046 3.894l31.958 116.961c.681 2.478.561 3.619-2.496 3.58l-32.484-.013c-2.454.024-3.553-.616-3.803-3.232-.362-3.801-1.196-7.557-1.893-11.759z"/><path fill="#1d5c4c" d="M655.723 475.526c-5.657 26.189-21.38 39.772-48.167 41.492-14.989.962-29.972-.204-44.952-.91-3.809-.18-2.756-2.645-2.593-4.524 1.488-17.134 1.243-34.29.824-51.451l-.985-38.98c-.058-2.199-.499-4.277 3.03-4.196 17.821.411 35.656-1.426 53.463-.09 24.052 1.805 37.9 15.774 40.088 39.784.564 6.19-.086 12.313-.709 18.875z"/><path d="M311.478 468.441l-2.464 2.96c-6.36 6.805-6.423 6.842-.748 14.597l14.392 19.162c3.096 4.113 2.459 6.009-2.499 7.349-9.335 2.523-18.853 4.036-28.459 5.008-4.612.467-6.898-2.63-8.593-6.184-3.149-6.603-6.28-13.224-9.111-19.966-2.001-4.765-5.941-2.803-9.015-2.731-3.609.084-1.716 3.334-1.697 5.083.066 6.155.416 12.312.838 18.456.18 2.625-.234 3.904-3.37 3.839-9.654-.2-19.315-.139-28.971-.031-2.591.029-3.431-.612-3.164-3.407 2.897-30.276.394-60.557-.205-90.833-.073-3.689.662-4.852 4.532-4.797l47.956.117c5.683.005 11.253.692 16.757 2.245 22.407 6.322 24.439 28.738 17.917 42.462-1.064 2.238-2.57 4.266-4.096 6.671zm469.604-128.028c-25.44-18.697-53.333-31.477-84.867-38.889 10.937-7.149 21.869-11.203 33.727-12.387 25.347-2.532 45.778 7.559 62.81 25.512 10.953 11.546 18.158 25.356 23.152 40.389.647 1.948.879 3.305-1.419 4.387-30.53 14.388-61.414 19.469-92.182 1.444-19.922-11.671-28.077-30.709-29.587-53.085-.228-3.382 1.257-2.931 3.555-2.205 15.554 4.919 30.723 10.845 45.751 17.163 12.742 5.357 25.053 11.586 37.523 18.269 1.39.441 2.431.823 3.6 1.464.199.089.461.162.289.114-.938-.562-1.804-.967-2.353-2.175z" fill="#1d5c4d"/><path d="M204.157 469.245c-.63 11.745-.627 11.678-11.921 11.184-5.823-.255-11.663-.118-17.486-.364-3.042-.129-4.495.507-4.499 4.061-.004 3.685 1.405 4.434 4.72 4.322l32.474-.702c6.982-.169 7.212 0 6.718 6.747-.425 5.815-1.022 11.623-1.22 17.446-.099 2.903-.839 4.086-4.005 4.069l-68.99-.002c-3.107.016-4.121-.88-3.804-3.986 3.042-29.781.347-59.568-.144-89.349-.075-4.531 1.032-5.79 5.661-5.737l67.989.118c5.638.003 6.467.963 5.944 6.367-.562 5.801-1.277 11.604-1.449 17.42-.108 3.627-1.086 4.757-4.923 4.539-11.138-.632-22.312-.6-33.455-1.163-3.93-.199-4.14 1.77-4.405 4.745-.333 3.734 1.591 4.042 4.485 3.953 7.992-.244 16.001-.108 23.978-.569 4.392-.254 5.729 1.453 5.291 5.485-.395 3.642-.625 7.301-.958 11.419zm187.045 40.579c-1.044-7.673-1.044-7.716-8.408-7.771-4.995-.037-9.995.202-14.986.059-2.847-.081-4.095.853-4.614 3.773-1.792 10.081-1.901 10.06-12.357 10.055l-23.926-.001 12.169-39.545 17.058-55.285c.913-3.026 2.141-4.216 5.448-4.153 11.657.221 23.321.186 34.98.031 2.925-.039 4.358.646 5.199 3.702l25.425 90.824c1.205 4.213-.129 4.589-3.725 4.501-8.491-.21-17.01-.425-25.478.064-4.77.275-6.67-1.346-6.786-6.253z" fill="#1d5d4d"/><path fill="#1e5d4d" d="M666.642 369.147c9.174-18.093 14.182-37.119 16.74-57.892 7.147 8.428 11.136 17.311 12.662 27.272 3.001 19.6-4.485 35.56-17.821 49.221-6.206 6.358-13.633 11.172-21.667 14.991-1.58.751-3.116 1.913-4.624-.489-12.507-19.924-18.543-41.009-10.483-64.13 5.873-16.847 18.857-25.537 35.853-29.02 3.398-.696 3.392.637 2.888 3.378-3.346 18.205-8.217 35.99-14.441 53.797.062 3.493-1.446 6.095-2.928 9.065l-.739 1.551c-.064.176-.306.29-.165.284.217-.258.327-.494.603-.953 1.232-2.529 2.07-4.968 4.122-7.075z"/><path d="M377.101 560.762l1.463 15.874c.292 2.379-.274 3.2-2.772 3.38-10.362.749-10.358.833-10.4-9.651l-.002-8.35-1.208-.239c-1.503 3.929-3.139 7.813-4.475 11.798-1.688 5.034-5.801 2.437-8.885 3.011-2.757.513-3.684-1.126-4.267-3.58-.904-3.81-2.197-7.528-4.35-11.248-.334 4.654-.903 9.308-.92 13.964-.011 3.179-.874 4.762-4.239 4.231-.163-.026-.333-.005-.499-.002-8.206.103-8.063.12-7.082-8.189 1.072-9.084 1.974-18.194 2.674-27.314.249-3.247 1.117-4.625 4.702-4.657 12.903-.117 12.903-.254 15.643 12.295l1.087 5.109c2.763-4.64 3.031-9.308 4.115-13.645.699-2.798 1.747-3.711 4.648-3.742 12.857-.138 12.883-.24 14.285 12.512.291 2.645.303 5.32.48 8.445zm125.135 9.991l-2.725-9.708c-2.028 5.294-1.58 10.065-1.546 14.73.023 3.239-1.033 4.274-4.32 4.256-8.233-.045-8.325.11-7.595-7.911l2.84-28.779c.214-2.463.937-3.386 3.547-3.526 13.569-.731 13.559-.807 16.466 12.281.319 1.438.766 2.847 1.365 5.046 2.171-4.89 2.962-9.36 3.888-13.767.525-2.496 1.554-3.678 4.322-3.551 16.588.764 12.566-3.635 14.446 13.329.842 7.597 1.155 15.252 1.957 22.854.328 3.102-.539 4.098-3.694 4.002-11.127-.339-8.885 1.411-9.161-8.692-.08-2.942-.012-5.888-.55-8.93-2.568 2.558-3.793 5.759-4.364 8.925-.992 5.502-4.609 5.13-8.813 5.464-4.727.375-5.027-2.676-6.063-6.023zm-92.356-3.499c-.087 2.626-.292 4.83.041 6.949.711 4.517-.751 6.082-5.531 5.866-8.683-.393-8.505-.092-8.443-8.784.065-8.991-.094-17.995-.564-26.972-.189-3.614.848-4.538 4.345-4.519 10.248.056 10.55-.072 10.115 10.007-.21 4.87 2.389 4.497 5.52 4.448 3.034-.047 6.426.539 5.471-4.397-.031-.161-.037-.337-.011-.499.495-3.053-2.18-7.567.564-8.859 3.295-1.551 7.811-.554 11.799-.566 1.929-.006 1.884 1.5 1.881 2.864-.029 11.493-.817 22.983-.142 34.481.07 1.191-.021 2.54-1.612 2.578-3.827.09-7.659.057-11.488 0-1.037-.015-1.32-.822-1.253-1.753.084-1.162.208-2.322.256-3.486.392-9.429-1.208-10.581-10.951-7.356z" fill="#b48063"/><path d="M325.771 558.146c-.548 15.234-8.269 22.924-22.343 22.689-8.836-.148-15.635-4.816-18.003-12.361-3.012-9.599-.159-20.529 6.643-25.451 14.073-10.184 31.869-2.428 33.703 15.123zm115.107 5.559c-.432-19.558 13.89-30.057 30.613-22.943 2.027.862 3.79 2.035 5.323 3.6 6.766 6.908 6.799 22.268.056 29.974-6.48 7.405-21.687 8.858-29.329 2.74-4.114-3.294-6.252-7.671-6.662-13.371zm-270.775 1.09l-.156-21.465c-.066-2.584.759-3.383 3.378-3.509 10.915-.527 10.911-.621 10.738 9.99l-.261 14.494c-.098 3.313 1.277 4.87 4.717 4.896 3.476.026 4.82-1.609 4.755-4.874l-.415-20.488c-.134-3.043.811-3.995 3.909-4.041 10.516-.155 10.516-.278 10.404 10.061l-.176 16.495c-.012 2.196-.286 4.321-1.267 6.309-3.259 6.604-13.577 9.8-24.065 7.459-8.351-1.864-11.448-5.843-11.56-15.327z" fill="#b48164"/><path fill="#b48063" d="M562.872 568.835l2.946-.085c7.636-.569 7.504-.579 7.11 7.29-.148 2.962-1.049 4.053-4.125 3.979-7.995-.191-15.997-.067-23.997-.062-1.891.001-3.627.239-3.326-2.79 1.077-10.81.576-21.641-.206-32.445-.256-3.535.443-5.099 4.49-4.934 7.986.325 15.997.181 23.994.03 3.137-.059 4.279 1.111 3.778 4.155-1.333 8.091 1.395 7.222-8.056 7.092l-6.498-.076c-1.249.022-3.029-.338-2.914 1.7.112 1.978 1.908 1.432 3.117 1.476 2.163.079 4.346.146 6.495-.052 3.22-.297 4.245 1.007 3.586 4.083-.276 1.289-.332 2.662-.252 3.983.171 2.804-.961 3.943-3.813 3.643-2.146-.226-4.329-.185-6.492-.123-1.216.035-3.12-.506-3.179 1.403-.071 2.328 2.053 1.588 3.397 1.721 1.155.114 2.331.023 3.945.014z"/><path fill="#b48265" d="M223.552 565.5c-7.88-3.822-10.287-7.357-9.6-13.765.657-6.124 5.449-10.938 12.683-12.269 4.778-.879 9.59-.582 14.327.703 2.299.624 3.523 1.695 2.634 4.244-.27.774-.357 1.619-.472 2.44-1.051 7.496-1.012 7.411-7.865 4.578-1.941-.802-4.968-3.048-6.022-.484-.916 2.229 2.768 2.543 4.632 3.273 10.12 3.965 13.523 10.608 9.429 18.685-2.816 5.556-8.003 7.179-13.606 7.865-4.496.55-8.943-.153-13.361-1.047-2.478-.501-3.918-1.607-3.238-4.386.157-.642.069-1.357.29-1.967.898-2.476-.149-6.065 2.176-7.392 2.261-1.29 4.136 2.063 6.486 2.678.159.042.301.151.461.187 2.413.554 5.882 3.113 6.956.375.874-2.229-3.483-2.498-5.911-3.719z"/><path fill="#b48164" d="M581.198 579.886c-3.868-.408-4.858-2.301-4.033-5.524.698-2.724.344-6.447 2.04-8.014 2.512-2.323 4.512 1.994 7.136 2.532 2.46.505 5.974 3.026 7.01.428.939-2.358-3.333-2.715-5.485-3.593-7.506-3.064-10.492-7.095-9.972-13.698.483-6.143 4.715-10.48 11.9-12.356 2.794-.729 5.61-.643 8.428-.548 9.787.329 11.791 3.691 7.864 12.795-1.022 2.369-2.324 1.671-3.962.941-3.059-1.364-5.914-3.742-10.073-2.323 1.453 2.744 4.067 3.011 6.24 3.896 7.817 3.181 10.993 7.176 10.499 13.316-.521 6.481-5.06 11.073-12.82 12.692-4.79 1-9.593.552-14.772-.544z"/><path fill="#b48265" d="M165.849 542.885l-.36 1.879c-1.639 6.898-1.64 6.898-8.551 6.282-5.773-.514-8.062 1.481-8.234 7.173-.217 7.173 2.447 10.589 8.212 10.535 8.518-.081 8.419-.095 7.175 8.561-.326 2.271-1.217 3.245-3.393 3.365-4.998.276-9.989.344-14.836-1.125-7.578-2.296-12.085-8.298-12.681-16.711-.712-10.058 3.069-17.804 10.586-21.357 6.274-2.965 12.879-2.864 19.55-1.778 1.583.258 3.009.636 2.532 3.175z"/><path fill="#b48164" d="M252.27 539.875l24.916-.052c3.126-.054 5.437.336 4.627 4.241-.605 2.914 1.66 7.914-4.569 7.03-4.33-.614-5.472 1.197-5.294 5.238.293 6.639.03 13.302.262 19.945.099 2.839-.781 3.672-3.629 3.743-10.623.262-10.572.371-10.334-10.194.105-4.652-.307-9.33.02-13.96.289-4.106-1.238-5.267-5.115-4.807-1.683.2-4.959 1.17-4.662-1.8.319-3.187-2.215-7.894 3.777-9.384z"/><path d="M269.566 350.548l.132 2.926c.073 12.449-1.363 13.599-14.098 11.63-1.614-.25-2.424-.783-2.378-2.432.023-.828-.082-1.667.006-2.486.384-3.566-1.691-9.212.951-10.288 4.53-1.846 10.205-1.809 15.387.65zm-1.929 34.512c-4.125.027-7.987.777-11.408-.133-6.213-1.651-2.044-7.085-2.875-10.723-.441-1.929-1.495-5.448 2.923-5.232.831.04 1.677-.086 2.495.023 3.537.471 8.831-1.849 10.264 1.115 1.954 4.043 1.046 9.395.238 14.165-.053.311-.768.509-1.637.785z" fill="#b78568"/><path d="M246.686 385.076l-1.465.004c-12.99-.013-12.932-.009-11.957-12.942.175-2.315.863-3.434 3.258-3.154.493.058.999.018 1.499.013 12.361-.121 13.635 1.417 11.629 13.719-.262 1.607-.846 2.436-2.964 2.36zm-8.521-20.018c-3.961.562-4.966-.894-4.945-4.39.07-11.706-.066-11.538 11.765-11.679 3.802-.046 4.764 1.079 4.725 4.779-.119 11.284.039 11.286-11.545 11.291z" fill="#b48265"/><path d="M484.781 378.943c.036-9.934.036-9.979 9.285-9.937 7.678.035 6.779-1.111 6.818 6.877.044 9.195.008 9.099-9.483 9.237-4.098.06-7.902.275-6.619-6.177zm4.378-29.861c11.872.023 11.731.024 11.826 11.569.029 3.491-.928 4.51-4.453 4.493-12.119-.056-12.017.084-11.82-12.122.049-3.025.899-4.381 4.447-3.941z" fill="#b48164"/><path fill="#b48265" d="M508.208 349.085h1.474c11.891.001 13.144 1.571 11.189 13.606-.264 1.627-.82 2.404-2.457 2.355-.83-.025-1.661.003-2.491.01-11.91.094-13.139-1.474-11.158-13.595.33-2.016 1.277-2.458 3.444-2.376z"/><path fill="#b48164" d="M513.943 385.075c-9.142-.017-9.143-.017-9.152-8.654-.002-1.5.075-3.003-.004-4.498-.111-2.105.778-2.784 2.904-2.978 13.197-1.203 12.877-1.186 13.327 11.227.218 6.023-3.247 4.849-7.075 4.903z"/><path fill="#fdfdfc" d="M352.351 283.35l21.448-22.848c2.188-2.387 3.642-3.073 6.261-.274l59.718 63.19c2.348 2.464 2.518 3.891-.07 6.364l-40.114 39.029c-1.688 1.659-3.44 2.283-5.765 2.263-10.998-.092-21.998-.134-32.994.014-2.75.037-4.763-.87-6.643-2.704l-40.152-38.99c-2.131-2.05-2.337-3.217-.097-5.537l38.41-40.508z"/><path fill="#fafbfb" d="M594.014 482.831l.917-34.401c.029-3.206 1.321-4.057 4.063-4.032 1.163.011 2.326-.11 3.49-.149 10.695-.363 14.29 2.306 15.925 12.727 1.265 8.06 1.708 16.234-.159 24.293-1.604 6.923-5.362 9.773-12.42 9.706-1.819-.017-3.641-.553-5.452-.501-5.073.146-7.291-2.069-6.364-7.644z"/><path fill="#f8faf9" d="M280.548 447.95c.707 3.55.668 6.677-.675 9.671-2.303 5.136-10.934 7.956-15.443 5.082-1.021-.651-.992-1.629-.958-2.63l.522-15.962c.036-1.631.722-2.279 2.288-2.627 4.956-1.103 11.339 1.577 14.267 6.466z"/><path fill="#f4f7f7" d="M371.257 471.14l5.485-20.057c.294-1.078.216-2.553 1.89-2.346 1.244.153 1.187 1.374 1.382 2.34l4.592 22.414c.415 1.929.021 2.826-2.058 2.803-2.487-.027-4.988-.098-7.458.125-3.925.354-5.589-.875-3.833-5.279z"/><path d="M299.667 557.169c.027-3.999.836-6.63 5.301-6.457 4.316.168 5.197 2.801 5.233 6.296l-.01 8.443c-.027 2.715-1.229 4.39-4.12 4.538-2.962.152-5.425-.681-5.919-3.937-.42-2.767-.346-5.609-.484-8.883zm159.085 12.291c-4.565-5.27-2.993-11.072-2.055-16.607.459-2.707 3.39-2.012 5.467-2.001 2.057.01 3.58.987 3.833 3.107.371 3.104.748 6.241.687 9.355-.121 6.146-1.338 7.052-7.932 6.147z" fill="#f8faf9"/><path fill="#b48164" d="M389.889 342.054c-10.962-.003-10.77-.007-10.98-10.931-.08-4.157 1.082-5.366 5.287-5.254 11.003.293 10.842.086 10.962 11.555.039 3.782-1.081 5.257-5.269 4.63z"/><path fill="#b48063" d="M364.147 306.099c10.939-.004 10.718.003 11.024 10.318.132 4.457-.959 6.01-5.674 5.855-10.587-.348-10.423-.096-10.563-11.509-.046-3.763.986-5.301 5.213-4.664z"/><path d="M384.115 322.147c-4.247.623-5.242-.998-5.202-4.701.126-11.48-.03-11.315 11.507-11.442 3.797-.042 5.244 1.103 4.636 4.8-.053.324-.001.664 0 .997.04 10.325.04 10.325-10.941 10.347zm-13.266 19.898c-11.979.014-11.868.013-11.908-11.491-.012-3.287.603-4.811 4.334-4.642 14.599.659 11.294-3.04 11.844 12.577.103 2.934-1.069 3.927-4.27 3.556z" fill="#b48164"/></svg>